# xmcd
#
# Track frame offsets: 
#        150
#        12239
#        24572
#        44126
#        60073
#        82747
#        96103
#        118690
#        141049
#
# Disc length: 2126 seconds
#
# Revision: 0
# Processed by: cddbd v1.5.2PL0 Copyright (c) Steve Scherf et al.
# Submitted via: ExactAudioCopy v0.95b4
#
DISCID=67084c09
DTITLE=The Grisly Hand - Flesh and Gold
DYEAR=2015
DGENRE=Country
TTITLE0=01 Get In Line, Stranger
TTITLE1=02 Baby Talk
TTITLE2=03 Regina
TTITLE3=04 Scrappy Dobbins
TTITLE4=05 Satan Ain't Real
TTITLE5=06 Brand New Bruise
TTITLE6=07 Ease On Up
TTITLE7=08 Name In Lights
TTITLE8=09 Regrets On Parting
EXTD=
EXTT0=
EXTT1=
EXTT2=
EXTT3=
EXTT4=
EXTT5=
EXTT6=
EXTT7=
EXTT8=
PLAYORDER=
